<svg width="17" height="20" viewBox="0 0 17 20" fill="none" xmlns="http://www.w3.org/2000/svg">
<path fill-rule="evenodd" clip-rule="evenodd" d="M8.63108 0C4.24251 0 0.651855 3.6 0.651855 8C0.651855 13.0668 6.79867 18.7499 7.8044 19.6797L7.80447 19.6798C7.87057 19.7409 7.91444 19.7815 7.9329 19.8C8.13238 19.9 8.4316 20 8.63108 20C8.83056 20 9.12978 19.9 9.32926 19.8C9.34772 19.7815 9.39159 19.7409 9.45767 19.6798L9.45777 19.6797C10.4635 18.7499 16.6103 13.0668 16.6103 8C16.6103 3.6 13.0197 0 8.63108 0Z" fill="#C6E492"/>
<ellipse cx="8.63092" cy="8" rx="2.99225" ry="3" fill="white"/>
</svg>
