<svg width="11" height="9" viewBox="0 0 11 9" fill="none" xmlns="http://www.w3.org/2000/svg">
<g clip-path="url(#clip0_201_9133)">
<path d="M10.4783 -2.73926C11.0272 -2.73926 11.5537 -2.51251 11.9419 -2.1089C12.33 -1.70529 12.5481 -1.15788 12.5481 -0.587084V9.19552C12.5481 9.76632 12.33 10.3137 11.9419 10.7173C11.5537 11.121 11.0272 11.3477 10.4783 11.3477H1.06985C0.520892 11.3477 -0.00558257 11.121 -0.393755 10.7173C-0.781927 10.3137 -1 9.76632 -1 9.19552V-0.587084C-1 -1.15788 -0.781927 -1.70529 -0.393755 -2.1089C-0.00558257 -2.51251 0.520892 -2.73926 1.06985 -2.73926H10.4783ZM10.4783 -1.56534H1.06985C0.550506 -1.56534 0.129009 -1.12708 0.129009 -0.587084V9.19552C0.129009 9.73552 0.550506 10.1738 1.06985 10.1738H10.4783C10.9976 10.1738 11.4191 9.73552 11.4191 9.19552V-0.587084C11.4191 -1.12708 10.9976 -1.56534 10.4783 -1.56534ZM4.26871 6.21378L9.1385 1.15031C9.23936 1.04625 9.37425 0.985572 9.51624 0.980373C9.65823 0.975173 9.79689 1.02584 9.90454 1.12226C10.0122 1.21868 10.0809 1.35376 10.097 1.50054C10.1131 1.64732 10.0753 1.79501 9.99128 1.91413L9.93634 1.97987L4.66763 7.45813C4.57205 7.55754 4.44533 7.61798 4.31052 7.62846C4.17571 7.63894 4.04176 7.59878 3.93302 7.51526L3.86979 7.45813L1.61177 5.11031C1.5117 5.00544 1.45334 4.86519 1.44834 4.71755C1.44334 4.56991 1.49207 4.42573 1.5848 4.3138C1.67753 4.20188 1.80744 4.13042 1.94861 4.1137C2.08978 4.09699 2.23182 4.13623 2.34638 4.22361L2.40961 4.28074L4.26871 6.21378Z" fill="#424F65"/>
<path d="M10.4783 -2.73926C11.0272 -2.73926 11.5537 -2.51251 11.9419 -2.1089C12.33 -1.70529 12.5481 -1.15788 12.5481 -0.587084V9.19552C12.5481 9.76632 12.33 10.3137 11.9419 10.7173C11.5537 11.121 11.0272 11.3477 10.4783 11.3477H1.06985C0.520892 11.3477 -0.00558257 11.121 -0.393755 10.7173C-0.781927 10.3137 -1 9.76632 -1 9.19552V-0.587084C-1 -1.15788 -0.781927 -1.70529 -0.393755 -2.1089C-0.00558257 -2.51251 0.520892 -2.73926 1.06985 -2.73926H10.4783ZM10.4783 -1.56534H1.06985C0.550506 -1.56534 0.129009 -1.12708 0.129009 -0.587084V9.19552C0.129009 9.73552 0.550506 10.1738 1.06985 10.1738H10.4783C10.9976 10.1738 11.4191 9.73552 11.4191 9.19552V-0.587084C11.4191 -1.12708 10.9976 -1.56534 10.4783 -1.56534ZM4.26871 6.21378L9.1385 1.15031C9.23936 1.04625 9.37425 0.985572 9.51624 0.980373C9.65823 0.975173 9.79689 1.02584 9.90454 1.12226C10.0122 1.21868 10.0809 1.35376 10.097 1.50054C10.1131 1.64732 10.0753 1.79501 9.99128 1.91413L9.93634 1.97987L4.66763 7.45813C4.57205 7.55754 4.44533 7.61798 4.31052 7.62846C4.17571 7.63894 4.04176 7.59878 3.93302 7.51526L3.86979 7.45813L1.61177 5.11031C1.5117 5.00544 1.45334 4.86519 1.44834 4.71755C1.44334 4.56991 1.49207 4.42573 1.5848 4.3138C1.67753 4.20188 1.80744 4.13042 1.94861 4.1137C2.08978 4.09699 2.23182 4.13623 2.34638 4.22361L2.40961 4.28074L4.26871 6.21378Z" fill="black" fill-opacity="0.2"/>
</g>
<defs>
<clipPath id="clip0_201_9133">
<rect width="10.0356" height="8.34783" fill="white" transform="translate(0.756348 0.130371)"/>
</clipPath>
</defs>
</svg>
