<svg width="15" height="15" viewBox="0 0 15 15" fill="none" xmlns="http://www.w3.org/2000/svg">
<path d="M11.442 12.3995C11.2283 12.3076 11.018 12.213 10.8111 12.1156C10.8416 12.086 10.8716 12.056 10.9009 12.0255C11.098 12.1598 11.2764 12.2817 11.442 12.3995ZM11.2867 11.5486C11.3039 11.5233 11.3132 11.5128 11.3133 11.5128C11.3133 11.5129 11.3036 11.524 11.2828 11.5418L11.1748 11.4687L12.2352 9.90955L11.2867 11.5486ZM12.3482 13.0869C12.3481 13.0869 12.347 13.0858 12.3449 13.0837C12.3471 13.0858 12.3482 13.0868 12.3482 13.0869ZM4.68251 7.25035L4.69717 7.24365L4.68251 7.25035ZM2.8034 3.94001C2.8727 4.03203 2.93849 4.12292 3.00001 4.21117C2.95914 4.25275 2.91873 4.2958 2.87894 4.34037C2.77284 4.11474 2.67097 3.88534 2.5734 3.6522C2.57196 3.64875 2.57055 3.64533 2.56917 3.64195C2.64597 3.73553 2.72466 3.83545 2.8034 3.94001ZM3.45047 4.96571C3.45542 4.97848 3.45367 4.9761 3.44823 4.96015C3.44919 4.96246 3.44993 4.96432 3.45047 4.96571ZM1.98977 3.02824C1.99092 3.02911 1.99232 3.0302 1.99398 3.03151C1.97982 3.02167 1.97818 3.0194 1.98977 3.02824Z" stroke="white" stroke-width="5"/>
</svg>
