<svg width="21" height="21" viewBox="0 0 21 21" fill="none" xmlns="http://www.w3.org/2000/svg">
<path fill-rule="evenodd" clip-rule="evenodd" d="M12.4136 14.9983L12.4867 15.0717V14.9999L12.4858 15L12.4847 15L12.4825 15L12.4775 15L12.4651 14.9998C12.456 14.9997 12.4448 14.9994 12.4317 14.999C12.426 14.9988 12.42 14.9986 12.4136 14.9983ZM0.386176 1.6169C0.14775 3.19683 -0.151338 6.95014 1.51539 10.8577V11H1.57691C2.27532 12.593 3.30392 14.2075 4.79965 15.7071C10.0122 20.9332 16.6165 20.4714 18.8533 20.1321C19.8365 19.9829 20.466 19.1277 20.466 18.2192V13.8471C20.466 12.8694 19.761 12.0351 18.7991 11.8743L14.3748 11.135C13.511 10.9907 12.6543 11.4281 12.2626 12.2134L11.917 12.9064C11.8084 12.8796 11.6871 12.8453 11.5554 12.8013C10.9367 12.5946 10.078 12.1707 9.20241 11.2929C8.32685 10.4151 7.90413 9.55407 7.6979 8.93377C7.64217 8.76616 7.60206 8.61545 7.57319 8.48609L9.37444 7.28213C10.1593 6.75751 10.4704 5.75338 10.1201 4.87525L8.67659 1.25722C8.37365 0.497902 7.64014 0 6.82446 0H2.29405C1.38789 0 0.534934 0.631162 0.386176 1.6169Z" fill="#BCE194"/>
</svg>
