<svg width="56" height="56" viewBox="0 0 56 56" fill="none" xmlns="http://www.w3.org/2000/svg">
<path d="M27.7594 28.1534H18.6587M27.7594 19.0527V28.1534V19.0527ZM27.7594 28.1534V37.2542V28.1534ZM27.7594 28.1534H36.8602H27.7594Z" stroke="#424F65" stroke-width="3.52287" stroke-linecap="round"/>
<path d="M27.7594 28.1534H18.6587M27.7594 19.0527V28.1534V19.0527ZM27.7594 28.1534V37.2542V28.1534ZM27.7594 28.1534H36.8602H27.7594Z" stroke="black" stroke-opacity="0.2" stroke-width="3.52287" stroke-linecap="round"/>
<path d="M27.7597 50.9052C40.3252 50.9052 50.5116 40.7189 50.5116 28.1534C50.5116 15.5878 40.3252 5.40149 27.7597 5.40149C15.1942 5.40149 5.00781 15.5878 5.00781 28.1534C5.00781 40.7189 15.1942 50.9052 27.7597 50.9052Z" stroke="#424F65" stroke-width="3.52287"/>
<path d="M27.7597 50.9052C40.3252 50.9052 50.5116 40.7189 50.5116 28.1534C50.5116 15.5878 40.3252 5.40149 27.7597 5.40149C15.1942 5.40149 5.00781 15.5878 5.00781 28.1534C5.00781 40.7189 15.1942 50.9052 27.7597 50.9052Z" stroke="black" stroke-opacity="0.2" stroke-width="3.52287"/>
</svg>
