<svg width="42" height="43" viewBox="0 0 42 43" fill="none" xmlns="http://www.w3.org/2000/svg">
<path d="M0 42.3616H21V0.361572H0V42.3616ZM13.125 5.61157H18.375V10.8616H13.125V5.61157ZM13.125 16.1116H18.375V21.3616H13.125V16.1116ZM13.125 26.6116H18.375V31.8616H13.125V26.6116ZM2.625 5.61157H7.875V10.8616H2.625V5.61157ZM2.625 16.1116H7.875V21.3616H2.625V16.1116ZM2.625 26.6116H7.875V31.8616H2.625V26.6116ZM23.625 13.4866H42V16.1116H23.625V13.4866ZM23.625 42.3616H28.875V31.8616H36.75V42.3616H42V18.7366H23.625V42.3616Z" fill="white"/>
</svg>
