<svg width="42" height="42" viewBox="0 0 42 42" fill="none" xmlns="http://www.w3.org/2000/svg">
<path d="M42 10.5L20.8425 0L0 10.5V13.125H2.625V42H7.875V18.375H34.125V42H39.375V13.125H42V10.5ZM10.5 15.75V13.125H15.75V15.75H10.5ZM18.375 15.75V13.125H23.625V15.75H18.375ZM26.25 15.75V13.125H31.5V15.75H26.25Z" fill="white"/>
<path d="M15.75 23.625H13.125V21H10.5V28.875H18.375V21H15.75V23.625Z" fill="white"/>
<path d="M15.75 34.125H13.125V31.5H10.5V39.375H18.375V31.5H15.75V34.125Z" fill="white"/>
<path d="M26.25 34.125H23.625V31.5H21V39.375H28.875V31.5H26.25V34.125Z" fill="white"/>
</svg>
