<svg width="17" height="16" viewBox="0 0 17 16" fill="none" xmlns="http://www.w3.org/2000/svg">
<path fill-rule="evenodd" clip-rule="evenodd" d="M14.45 2.3C12.8563 0.8 10.7312 0 8.5 0C3.825 0 0 3.6 0 8C0 9.4 0.425007 10.8 1.16876 12L0 16L4.46251 14.9C5.73751 15.5 7.11875 15.9 8.5 15.9C13.175 15.9 17 12.3 17 7.9C17 5.8 16.0438 3.8 14.45 2.3ZM8.5 14.6C7.225 14.6 5.95001 14.3 4.88751 13.7L4.67499 13.6L2.01874 14.3L2.76251 11.9L2.54999 11.6C1.80624 10.5 1.48749 9.3 1.48749 8.1C1.48749 4.5 4.675 1.5 8.5 1.5C10.4125 1.5 12.1125 2.2 13.4938 3.4C14.875 4.7 15.5125 6.3 15.5125 8.1C15.5125 11.6 12.4312 14.6 8.5 14.6ZM12.325 9.6C12.1125 9.5 11.05 9 10.8375 9C10.625 8.9 10.5187 8.9 10.4125 9.1C10.3062 9.3 9.88126 9.7 9.77501 9.9C9.66876 10 9.56249 10 9.34999 10C9.13749 9.9 8.50001 9.7 7.65001 9C7.01251 8.5 6.58751 7.8 6.48126 7.6C6.37501 7.4 6.48126 7.3 6.58751 7.2C6.69376 7.1 6.8 7 6.90625 6.9C7.0125 6.8 7.01251 6.7 7.11876 6.6C7.22501 6.5 7.11876 6.4 7.11876 6.3C7.11876 6.2 6.69376 5.2 6.48126 4.8C6.37501 4.5 6.16251 4.5 6.05626 4.5C5.95001 4.5 5.84374 4.5 5.63124 4.5C5.52499 4.5 5.31249 4.5 5.09999 4.7C4.88749 4.9 4.35626 5.4 4.35626 6.4C4.35626 7.4 5.09999 8.3 5.20624 8.5C5.31249 8.6 6.69374 10.7 8.81874 11.5C10.625 12.2 10.9438 12 11.3688 12C11.7938 12 12.6438 11.5 12.75 11.1C12.9625 10.6 12.9625 10.2 12.8563 10.2C12.75 9.7 12.5375 9.7 12.325 9.6Z" fill="white"/>
</svg>
