<svg width="48" height="8" viewBox="0 0 48 8" fill="none" xmlns="http://www.w3.org/2000/svg">
<path d="M47.3536 4.35355C47.5488 4.15829 47.5488 3.8417 47.3536 3.64644L44.1716 0.464462C43.9763 0.2692 43.6597 0.2692 43.4645 0.464462C43.2692 0.659725 43.2692 0.976307 43.4645 1.17157L46.2929 4L43.4645 6.82842C43.2692 7.02369 43.2692 7.34027 43.4645 7.53553C43.6597 7.73079 43.9763 7.73079 44.1716 7.53553L47.3536 4.35355ZM4.37114e-08 4.5L47 4.5L47 3.5L-4.37114e-08 3.5L4.37114e-08 4.5Z" fill="url(#paint0_linear_201_9232)"/>
<defs>
<linearGradient id="paint0_linear_201_9232" x1="4.37114e-08" y1="4.5" x2="47" y2="4.5" gradientUnits="userSpaceOnUse">
<stop stop-color="#4BC0AC"/>
<stop offset="0.27" stop-color="#75CCA3"/>
<stop offset="0.6" stop-color="#A1D99A"/>
<stop offset="0.85" stop-color="#BCE194"/>
<stop offset="1" stop-color="#C6E492"/>
</linearGradient>
</defs>
</svg>
