<svg width="166" height="124" viewBox="0 0 166 124" fill="none" xmlns="http://www.w3.org/2000/svg">
<path fill-rule="evenodd" clip-rule="evenodd" d="M3.68889 61.8813C3.68889 29.7398 29.7038 3.68889 61.7889 3.68889C93.874 3.68889 119.889 29.7398 119.889 61.8813C119.889 94.0227 93.874 120.074 61.7889 120.074C29.7038 120.074 3.68889 94.0227 3.68889 61.8813ZM61.7889 0C27.6611 0 0 27.7079 0 61.8813C0 96.0546 27.6611 123.763 61.7889 123.763C95.1839 123.763 122.387 97.2317 123.54 64.0733H159.703L151.113 72.6626C150.393 73.3829 150.393 74.5507 151.113 75.271C151.834 75.9913 153.001 75.9913 153.722 75.271L165.46 63.5331C166.18 62.8128 166.18 61.6449 165.46 60.9246L153.722 49.1867C153.001 48.4664 151.834 48.4664 151.113 49.1867C150.393 49.907 150.393 51.0748 151.113 51.7951L159.703 60.3844H123.56C122.766 26.9024 95.4169 0 61.7889 0Z" fill="url(#paint0_linear_201_6191)"/>
<defs>
<linearGradient id="paint0_linear_201_6191" x1="0" y1="61.8813" x2="166" y2="61.8813" gradientUnits="userSpaceOnUse">
<stop stop-color="#4BC0AC"/>
<stop offset="0.27" stop-color="#75CCA3"/>
<stop offset="0.6" stop-color="#A1D99A"/>
<stop offset="0.85" stop-color="#BCE194"/>
<stop offset="1" stop-color="#C6E492"/>
</linearGradient>
</defs>
</svg>
