<svg width="298" height="64" viewBox="0 0 298 64" fill="none" xmlns="http://www.w3.org/2000/svg">
<g clip-path="url(#clip0_201_9240)">
<path d="M85 24.2539H0.324219V64.2215H85V24.2539Z" fill="white"/>
<path d="M33.5481 40.8412H36.6834V47.6365H33.5481V50.3049H42.6061V47.6365H39.4708V40.8412H42.6061V38.1729H33.5481V40.8412Z" fill="#435066"/>
<path d="M26.68 38.1729H19.2451V40.8429H26.68C28.5963 40.8429 29.9196 42.1597 29.9196 44.2397C29.9196 46.3196 28.5963 47.6365 26.68 47.6365H24.5898V43.4964H21.804V50.3065H26.6817C30.0439 50.3065 32.6044 47.6728 32.6044 44.2397C32.6028 40.8066 30.0422 38.1729 26.68 38.1729Z" fill="#435066"/>
<path d="M66.0807 38.1729H56.125V40.8412H59.7091V50.3049H62.4966V40.8412H66.0807V38.1729Z" fill="#435066"/>
<path d="M52.5075 38.1729H52.5059H45.591V40.8412H45.5927H48.0406L44.4548 50.3049H44.4565H47.504L50.7287 41.3455V41.3472L53.0988 47.6365H50.6658V50.3049H57.0042L52.5075 38.1729Z" fill="#435066"/>
<path d="M292.642 -0.116211H85V24.2533H292.642V-0.116211Z" fill="url(#paint0_linear_201_9240)"/>
<path d="M122.203 6.67578V15.7752H121.04L121.047 9.06889L117.686 15.7752H116.523V6.67578H117.686L117.681 13.3755L121.042 6.67578H122.203Z" fill="#435066"/>
<path d="M128.74 15.775V12.8875H125.424V15.775H124.262V9.0127H125.424V11.9431H128.74V9.0127H129.903V15.775H128.74V15.775Z" fill="#435066"/>
<path d="M136.46 15.775V12.8875H133.144V15.775H131.981V9.0127H133.144V11.9431H136.46V9.0127H137.622V15.775H136.46V15.775Z" fill="#435066"/>
<path d="M139.643 10.9726C139.786 10.554 139.991 10.1897 140.259 9.88153C140.523 9.57332 140.846 9.33105 141.227 9.15305C141.608 8.9767 142.037 8.8877 142.514 8.8877C142.996 8.8877 143.428 8.9767 143.81 9.15305C144.193 9.3294 144.519 9.57332 144.788 9.88153C145.051 10.1897 145.255 10.554 145.397 10.9726C145.54 11.3912 145.611 11.8445 145.611 12.3323V12.4691C145.611 12.957 145.54 13.4086 145.397 13.8255C145.255 14.2425 145.051 14.6051 144.788 14.9133C144.519 15.2215 144.195 15.4638 143.814 15.6385C143.433 15.8132 143.004 15.9006 142.527 15.9006C142.045 15.9006 141.613 15.8132 141.23 15.6385C140.847 15.4638 140.523 15.2215 140.259 14.9133C139.991 14.6051 139.786 14.2425 139.643 13.8255C139.501 13.4086 139.43 12.957 139.43 12.4691V12.3323C139.43 11.8445 139.501 11.3912 139.643 10.9726ZM140.712 13.4218C140.791 13.7234 140.912 13.9887 141.076 14.2178C141.235 14.4469 141.435 14.6282 141.679 14.7617C141.922 14.8952 142.204 14.9611 142.527 14.9611C142.845 14.9611 143.125 14.8952 143.365 14.7617C143.605 14.6282 143.807 14.4469 143.971 14.2178C144.13 13.9887 144.249 13.7234 144.329 13.4218C144.408 13.1201 144.448 12.802 144.448 12.4691V12.3323C144.448 12.0027 144.407 11.6879 144.326 11.3863C144.244 11.0847 144.123 10.8193 143.964 10.5902C143.8 10.3611 143.598 10.1782 143.358 10.043C143.118 9.9079 142.837 9.84032 142.514 9.84032C142.191 9.84032 141.911 9.9079 141.672 10.043C141.434 10.1782 141.235 10.3611 141.076 10.5902C140.912 10.8193 140.791 11.0847 140.712 11.3863C140.632 11.6879 140.592 12.0043 140.592 12.3323V12.4691C140.592 12.802 140.632 13.1201 140.712 13.4218Z" fill="#435066"/>
<path d="M147.413 9.0127H150.083C150.502 9.0127 150.882 9.0506 151.225 9.12477C151.568 9.20058 151.865 9.31266 152.111 9.46264C152.355 9.61262 152.542 9.80381 152.673 10.0378C152.805 10.2719 152.87 10.5488 152.87 10.8685C152.87 11.0729 152.832 11.2641 152.754 11.4404C152.676 11.6168 152.562 11.7733 152.411 11.9052C152.327 11.9843 152.231 12.0552 152.123 12.1178C152.014 12.1804 151.894 12.2365 151.765 12.2859L151.815 12.2991C152.024 12.3535 152.207 12.4293 152.365 12.5265C152.522 12.6238 152.656 12.7408 152.771 12.8727C152.883 13.0095 152.969 13.1627 153.027 13.3292C153.085 13.4957 153.115 13.6704 153.115 13.855C153.115 14.1763 153.054 14.4565 152.933 14.6955C152.812 14.9345 152.638 15.1339 152.411 15.2921C152.186 15.4553 151.913 15.5756 151.591 15.6547C151.272 15.7338 150.912 15.7734 150.515 15.7734H147.413V9.0127V9.0127ZM150.094 11.8821C150.409 11.8821 150.679 11.8558 150.904 11.8014C151.129 11.747 151.31 11.6613 151.444 11.5459C151.528 11.4701 151.593 11.3827 151.639 11.2805C151.686 11.1784 151.709 11.063 151.709 10.9344C151.709 10.763 151.673 10.6163 151.6 10.4911C151.527 10.3658 151.419 10.2636 151.277 10.1845C151.143 10.1054 150.974 10.0477 150.772 10.0098C150.568 9.97192 150.339 9.95379 150.084 9.95379H148.584V11.8854H150.094V11.8821ZM148.58 14.8438H150.515C150.762 14.8438 150.979 14.8191 151.164 14.768C151.35 14.7186 151.504 14.6444 151.626 14.5488C151.73 14.4648 151.81 14.3626 151.865 14.239C151.919 14.1154 151.946 13.9753 151.946 13.817C151.946 13.6539 151.916 13.5105 151.855 13.3852C151.793 13.26 151.706 13.1561 151.588 13.0721C151.467 12.9847 151.316 12.9172 151.136 12.8727C150.955 12.8282 150.748 12.8034 150.515 12.8034H148.58V14.8438V14.8438Z" fill="#435066"/>
<path d="M159.55 15.4473C159.523 15.3155 159.504 15.1803 159.49 15.0386C159.373 15.1556 159.242 15.266 159.098 15.3699C158.954 15.4737 158.795 15.566 158.624 15.6451C158.449 15.7242 158.261 15.7868 158.066 15.833C157.87 15.8791 157.66 15.9022 157.438 15.9022C157.079 15.9022 156.753 15.8495 156.461 15.7456C156.17 15.6418 155.924 15.5001 155.722 15.3204C155.517 15.1457 155.36 14.9364 155.249 14.6925C155.138 14.4485 155.083 14.1848 155.083 13.9014C155.083 13.5305 155.158 13.2058 155.307 12.9257C155.456 12.6471 155.666 12.4131 155.938 12.2252C156.209 12.0423 156.537 11.9038 156.92 11.8132C157.302 11.7209 157.731 11.6764 158.203 11.6764H159.472V11.1457C159.472 10.9413 159.434 10.7583 159.359 10.5952C159.283 10.432 159.177 10.2936 159.04 10.1765C158.902 10.0645 158.733 9.97712 158.535 9.91449C158.336 9.85186 158.112 9.82055 157.866 9.82055C157.635 9.82055 157.428 9.85021 157.246 9.9079C157.064 9.96558 156.91 10.043 156.784 10.1386C156.658 10.2342 156.56 10.348 156.492 10.4798C156.423 10.6117 156.388 10.7468 156.388 10.8885H155.22C155.225 10.643 155.288 10.4007 155.413 10.1634C155.537 9.92603 155.716 9.71177 155.949 9.51894C156.179 9.33105 156.461 9.17942 156.794 9.0624C157.127 8.94538 157.504 8.8877 157.927 8.8877C158.313 8.8877 158.67 8.93384 159 9.02779C159.331 9.12173 159.618 9.26183 159.86 9.44971C160.098 9.6409 160.287 9.87823 160.424 10.1617C160.562 10.4452 160.631 10.7765 160.631 11.1555V14.2986C160.631 14.5244 160.653 14.7617 160.694 15.0139C160.736 15.266 160.795 15.4852 160.87 15.6731V15.7737H159.658C159.613 15.688 159.576 15.5792 159.55 15.4473ZM158.24 14.8062C158.437 14.7485 158.617 14.671 158.78 14.5755C158.939 14.4799 159.076 14.3694 159.194 14.2475C159.311 14.1239 159.403 13.997 159.47 13.8635V12.4955H158.391C157.988 12.4955 157.639 12.5301 157.339 12.5993C157.039 12.6686 156.802 12.774 156.627 12.9141C156.501 13.0147 156.406 13.1333 156.34 13.2701C156.274 13.4069 156.242 13.5635 156.242 13.7382C156.242 13.9047 156.271 14.0596 156.327 14.2013C156.383 14.3431 156.468 14.4634 156.582 14.5639C156.695 14.6678 156.837 14.7485 157.009 14.8078C157.181 14.8655 157.38 14.8952 157.605 14.8952C157.831 14.8952 158.043 14.8655 158.24 14.8062Z" fill="#435066"/>
<path d="M164.048 9.0127V14.8307H167.175V9.0127H168.343V14.8307H169.153L169.04 17.7808H167.998V15.775H162.885V9.0127H164.048Z" fill="#435066"/>
<path d="M176.213 9.0127V15.775H175.05V10.7877L171.728 15.775H170.572V9.0127H171.728V14.0066L175.05 9.0127H176.213Z" fill="#435066"/>
<path d="M183.932 9.0127V15.775H182.77V10.7877L179.447 15.775H178.291V9.0127H179.447V14.0066L182.77 9.0127H183.932Z" fill="#435066"/>
<path d="M194.129 14.5472C194.253 14.3824 194.354 14.1582 194.434 13.8747C194.513 13.5913 194.578 13.2534 194.626 12.8628C194.674 12.4705 194.712 12.0337 194.742 11.5508L194.843 9.0127H199.22V14.8307H200.093L199.98 17.7611H198.932V15.7734H194.19V17.7611H193.148L193.036 14.8307H193.677C193.854 14.8059 194.005 14.712 194.129 14.5472ZM195.825 12.5496C195.793 12.8661 195.755 13.1627 195.709 13.4363C195.662 13.7149 195.604 13.972 195.537 14.2044C195.469 14.4368 195.383 14.6461 195.282 14.829H198.057V10.079H195.959L195.903 11.5475C195.881 11.9003 195.856 12.2332 195.825 12.5496Z" fill="#435066"/>
<path d="M207.082 15.7757H205.913V9.96929H203.414L203.407 11.9059C203.407 12.135 203.402 12.3575 203.392 12.5717C203.382 12.786 203.366 12.9887 203.346 13.1815C203.313 13.498 203.26 13.7897 203.189 14.0567C203.117 14.3237 203.028 14.5594 202.919 14.7621C202.743 15.0917 202.506 15.3423 202.21 15.5153C201.913 15.6884 201.542 15.7741 201.098 15.7741H200.759L200.777 14.7423L201.034 14.7357C201.272 14.7357 201.471 14.6764 201.627 14.5577C201.784 14.4391 201.908 14.2611 202.001 14.0237C202.047 13.8952 202.087 13.7452 202.12 13.5771C202.153 13.409 202.182 13.2211 202.201 13.0184C202.215 12.8552 202.223 12.6821 202.23 12.4959C202.236 12.3113 202.239 12.1135 202.239 11.9059L202.253 9.01172H207.082V15.7757Z" fill="#435066"/>
<path d="M214.769 15.775H213.606V13.1446H211.496L209.881 15.775H208.626L210.34 12.9683C209.905 12.81 209.57 12.5645 209.335 12.2332C209.1 11.9019 208.984 11.5162 208.984 11.0745C208.984 10.7746 209.043 10.4993 209.163 10.2472C209.282 9.99499 209.452 9.77744 209.674 9.59449C209.896 9.41484 210.168 9.2731 210.491 9.16927C210.814 9.06544 211.175 9.0127 211.577 9.0127H214.767V15.775H214.769ZM210.228 11.4998C210.277 11.6333 210.357 11.7503 210.466 11.8492C210.57 11.953 210.703 12.037 210.862 12.0997C211.021 12.1623 211.211 12.1936 211.433 12.1936H213.606V9.95049H211.577C211.339 9.95049 211.13 9.98345 210.95 10.0477C210.769 10.112 210.622 10.1961 210.504 10.3015C210.387 10.4103 210.299 10.5323 210.241 10.6674C210.183 10.8026 210.153 10.9427 210.153 11.0894C210.153 11.2295 210.178 11.3679 210.228 11.4998Z" fill="#435066"/>
<path d="M227.957 12.838V15.775H226.795V12.838H226.424L225.074 15.775H223.673L225.538 12.2562L223.893 9.0127H225.236L226.424 11.8129H226.795V9.0127H227.957V11.8129H228.328L229.521 9.0127H230.864L229.206 12.2562L231.078 15.775H229.672L228.322 12.838H227.957Z" fill="#435066"/>
<path d="M237.963 9.0127V15.775H236.8V10.7877L233.478 15.775H232.322V9.0127H233.478V14.0066L236.8 9.0127H237.963Z" fill="#435066"/>
<path d="M241.013 13.7757C241.013 13.9388 241.061 14.0905 241.158 14.2355C241.254 14.3789 241.388 14.5058 241.56 14.6129C241.732 14.725 241.934 14.814 242.17 14.8783C242.405 14.9426 242.658 14.9755 242.93 14.9755C243.198 14.9755 243.443 14.9475 243.665 14.8915C243.887 14.8354 244.078 14.7563 244.237 14.6574C244.392 14.5569 244.511 14.4415 244.598 14.308C244.684 14.1745 244.727 14.0311 244.727 13.8762C244.727 13.685 244.687 13.5202 244.608 13.3851C244.528 13.2499 244.412 13.1378 244.261 13.0505C244.185 13.0093 244.102 12.973 244.01 12.945C243.917 12.9153 243.819 12.8906 243.715 12.8692C243.61 12.8478 243.498 12.8346 243.375 12.8247C243.254 12.8165 243.128 12.8115 242.998 12.8115H241.484V11.8358H242.998C243.132 11.8358 243.258 11.8309 243.375 11.821C243.493 11.8111 243.599 11.7946 243.695 11.7748C243.816 11.7501 243.927 11.7171 244.025 11.6743C244.122 11.6331 244.21 11.5853 244.285 11.5309C244.389 11.4518 244.468 11.3562 244.523 11.2441C244.578 11.132 244.604 11.0051 244.604 10.8634C244.604 10.7217 244.568 10.5882 244.495 10.4629C244.422 10.3376 244.316 10.2272 244.179 10.1316C244.036 10.0393 243.861 9.9668 243.65 9.91241C243.442 9.85802 243.2 9.83165 242.928 9.83165C242.685 9.83165 242.454 9.85802 242.237 9.91241C242.02 9.9668 241.83 10.0393 241.666 10.1316C241.499 10.2272 241.366 10.3409 241.267 10.4728C241.167 10.6046 241.119 10.7464 241.119 10.9013H239.957C239.962 10.5882 240.043 10.308 240.205 10.0607C240.366 9.81353 240.583 9.60092 240.854 9.42621C241.123 9.2548 241.436 9.1246 241.794 9.0323C242.151 8.94001 242.529 8.89551 242.926 8.89551C243.345 8.89551 243.728 8.93671 244.076 9.02076C244.424 9.10482 244.723 9.22679 244.974 9.38995C245.225 9.55641 245.419 9.76243 245.558 10.0064C245.697 10.2503 245.765 10.5338 245.765 10.8601C245.765 11.0595 245.719 11.2474 245.628 11.4221C245.537 11.5968 245.406 11.755 245.239 11.8968C245.146 11.9759 245.04 12.0501 244.919 12.1193C244.798 12.1885 244.667 12.2495 244.53 12.3039C244.727 12.3616 244.904 12.4341 245.06 12.5198C245.217 12.6055 245.354 12.7044 245.47 12.8164C245.608 12.9532 245.714 13.1115 245.787 13.2878C245.86 13.4642 245.896 13.6619 245.896 13.8779C245.896 14.2025 245.82 14.491 245.668 14.7398C245.515 14.9904 245.305 15.1997 245.036 15.3711C244.768 15.5458 244.455 15.6776 244.094 15.765C243.735 15.8523 243.344 15.8968 242.926 15.8968C242.516 15.8968 242.115 15.849 241.721 15.7534C241.326 15.6579 240.984 15.5079 240.69 15.3035C240.444 15.137 240.242 14.9261 240.084 14.669C239.927 14.4119 239.849 14.1152 239.849 13.779H241.013V13.7757Z" fill="#435066"/>
<path d="M252.238 15.775V12.8875H248.922V15.775H247.76V9.0127H248.922V11.9431H252.238V9.0127H253.401V15.775H252.238V15.775Z" fill="#435066"/>
<path d="M261.118 9.0127V15.775H259.955V10.7877L256.632 15.775H255.476V9.0127H256.632V14.0066L259.955 9.0127H261.118Z" fill="#435066"/>
</g>
<defs>
<linearGradient id="paint0_linear_201_9240" x1="85.0007" y1="12.0693" x2="292.642" y2="12.0693" gradientUnits="userSpaceOnUse">
<stop stop-color="#53BAAA"/>
<stop offset="0.0875" stop-color="#65BEA7"/>
<stop offset="0.4962" stop-color="#9FCE9D"/>
<stop offset="0.814" stop-color="#BCD896"/>
<stop offset="1" stop-color="#C6DB93"/>
</linearGradient>
<clipPath id="clip0_201_9240">
<rect width="298" height="64" fill="white"/>
</clipPath>
</defs>
</svg>
