<svg width="123" height="59" viewBox="0 0 123 59" fill="none" xmlns="http://www.w3.org/2000/svg">
<path d="M122.984 0H0.303955V58.0115H122.984V0Z" fill="#F6F6F6"/>
<path d="M48.4363 24.0751H52.9806V33.9319H48.4363V37.8069H61.5594V33.9319H57.015V24.0751H61.5594V20.2001H48.4363V24.0751Z" fill="#424F65"/>
<path d="M48.4363 24.0751H52.9806V33.9319H48.4363V37.8069H61.5594V33.9319H57.015V24.0751H61.5594V20.2001H48.4363V24.0751Z" fill="black" fill-opacity="0.2"/>
<path d="M38.4878 20.2001H27.7219V24.0694H38.4878C41.2643 24.0694 43.1852 25.9843 43.1852 29.0007C43.1852 32.0171 41.2643 33.932 38.4878 33.932H35.4847V27.9218H31.4447V37.8069H38.4878C43.3608 37.8069 47.0722 33.9828 47.0722 29.0007C47.0722 24.0186 43.3608 20.2001 38.4878 20.2001Z" fill="#424F65"/>
<path d="M38.4878 20.2001H27.7219V24.0694H38.4878C41.2643 24.0694 43.1852 25.9843 43.1852 29.0007C43.1852 32.0171 41.2643 33.932 38.4878 33.932H35.4847V27.9218H31.4447V37.8069H38.4878C43.3608 37.8069 47.0722 33.9828 47.0722 29.0007C47.0722 24.0186 43.3608 20.2001 38.4878 20.2001Z" fill="black" fill-opacity="0.2"/>
<path d="M95.5703 20.2001H81.1497V24.0751H86.34V37.8069H90.38V24.0751H95.5703V20.2001Z" fill="#424F65"/>
<path d="M95.5703 20.2001H81.1497V24.0751H86.34V37.8069H90.38V24.0751H95.5703V20.2001Z" fill="black" fill-opacity="0.2"/>
<path d="M75.9083 20.2001H75.9026H65.8847V24.0751H65.8903H69.4374L64.2415 37.8069H68.6555L73.3302 24.8037L76.7639 33.9319H73.2395V37.8069H82.4245L75.9083 20.2001Z" fill="#424F65"/>
<path d="M75.9083 20.2001H75.9026H65.8847V24.0751H65.8903H69.4374L64.2415 37.8069H68.6555L73.3302 24.8037L76.7639 33.9319H73.2395V37.8069H82.4245L75.9083 20.2001Z" fill="black" fill-opacity="0.2"/>
</svg>
